<svg width="164" height="32" viewBox="0 0 164 32" xmlns="http://www.w3.org/2000/svg" xmlns:xlink="http://www.w3.org/1999/xlink"><title>Logo - DYM Apps</title><defs><path id="a" d="M0 32.583h38.19V.97H0v31.613z"/></defs><g fill="none" fill-rule="evenodd"><path d="M56.79 11.458c-.614 0-1.163.125-1.65.37a3.72 3.72 0 0 0-1.25 1.027c-.344.44-.608.96-.79 1.57a7.017 7.017 0 0 0-.27 2.023c0 .685.09 1.33.27 1.94.182.607.44 1.135.777 1.58.334.448.744.805 1.234 1.07.488.267 1.047.4 1.68.4.574 0 1.123-.1 1.65-.3.525-.2.994-.503 1.407-.912.41-.41.735-.922.975-1.54.24-.616.36-1.335.36-2.152 0-.798-.126-1.51-.374-2.14a5.02 5.02 0 0 0-.99-1.596 4.264 4.264 0 0 0-1.407-.997 4.04 4.04 0 0 0-1.62-.342zm6.686 11.975H61.18l-.287-1.768c-.23.325-.522.61-.875.857a7.34 7.34 0 0 1-1.12.64c-.392.182-.788.318-1.19.414a4.885 4.885 0 0 1-1.12.142c-.898 0-1.74-.19-2.526-.57a6.4 6.4 0 0 1-2.037-1.554 7.3 7.3 0 0 1-1.35-2.31 8.157 8.157 0 0 1-.487-2.836c0-.97.154-1.895.46-2.78a7.2 7.2 0 0 1 1.305-2.323 6.284 6.284 0 0 1 2.024-1.583c.784-.39 1.654-.583 2.61-.583 1.895 0 3.33.588 4.306 1.765V2.05h2.583v21.383zM78.774 9.463l-8.61 20.87h-2.87l3.243-7.526-5.855-13.344h2.87l4.39 10.38 3.962-10.38h2.87zM101.82 23.433h-2.583v-8.21c0-1.313-.258-2.267-.773-2.865-.518-.6-1.36-.9-2.527-.9-2.487 0-3.73 1.294-3.73 3.878v8.097H89.62v-7.698c0-1.596-.28-2.71-.846-3.335-.564-.627-1.383-.942-2.454-.942-1.798 0-3.042.61-3.73 1.825v10.15h-2.585V9.463h2.01l.286 1.482c.766-.684 1.465-1.15 2.097-1.396.63-.25 1.34-.373 2.123-.373 2.142 0 3.73.933 4.765 2.794.975-1.86 2.688-2.793 5.137-2.793 3.598 0 5.396 2.006 5.396 6.017v8.24z" fill="#FEFEFE"/><path d="M118.37 16.762h-2.525c-1.225 0-2.143.238-2.755.713-.612.476-.92 1.074-.92 1.796 0 .724.24 1.307.72 1.755.476.446 1.204.67 2.18.67.976 0 1.77-.29 2.382-.87.613-.58.92-1.317.92-2.21v-1.853zm-3.214-8.01c3.655 0 5.482 1.842 5.482 5.53v9.15H118.4v-1.71c-.747 1.237-2.106 1.854-4.075 1.854-1.36 0-2.454-.4-3.287-1.197-.833-.8-1.25-1.85-1.25-3.153 0-1.302.532-2.337 1.595-3.106 1.06-.77 2.51-1.155 4.347-1.155h2.64v-.74c0-1.142-.257-2-.774-2.58-.516-.58-1.47-.87-2.856-.87-1.388 0-2.684.408-3.89 1.226V9.75c1.092-.665 2.528-.997 4.306-.997zM126.177 16.163c0 1.882.43 3.26 1.292 4.134.86.874 1.86 1.312 2.998 1.312 1.138 0 2.1-.48 2.884-1.44.786-.96 1.176-2.277 1.176-3.95s-.382-2.994-1.146-3.963c-.766-.97-1.733-1.454-2.9-1.454-1.167 0-2.176.423-3.027 1.27-.853.845-1.278 2.21-1.278 4.09zm0-7.185v2.196c1.014-1.615 2.502-2.423 4.462-2.423 1.962 0 3.492.7 4.593 2.095 1.1 1.397 1.65 3.175 1.65 5.332 0 2.158-.58 3.944-1.736 5.36-1.158 1.416-2.68 2.125-4.565 2.125-1.883 0-3.352-.808-4.405-2.424v7.813h-2.24V8.98h2.24zM141.733 16.163c0 1.882.43 3.26 1.29 4.134.864.874 1.862 1.312 3 1.312 1.14 0 2.1-.48 2.885-1.44.784-.96 1.176-2.277 1.176-3.95s-.382-2.994-1.146-3.963c-.766-.97-1.733-1.454-2.9-1.454-1.167 0-2.177.423-3.027 1.27-.852.845-1.277 2.21-1.277 4.09zm0-7.185v2.196c1.014-1.615 2.502-2.423 4.464-2.423 1.96 0 3.49.7 4.592 2.095 1.098 1.397 1.65 3.175 1.65 5.332 0 2.158-.58 3.944-1.738 5.36-1.157 1.416-2.678 2.125-4.564 2.125-1.883 0-3.352-.808-4.405-2.424v7.813h-2.24V8.98h2.24zM159.356 10.802c-.766 0-1.373.177-1.823.53-.45.35-.674.75-.674 1.196 0 .446.066.797.2 1.055.133.257.392.51.776.755.458.285 1.223.652 2.294 1.098 1.073.446 1.953.983 2.64 1.61.69.628 1.034 1.518 1.034 2.667 0 1.15-.435 2.087-1.305 2.808-.872.723-2.126 1.085-3.762 1.085-1.635 0-3-.295-4.09-.884v-2.195a7.958 7.958 0 0 0 4.135 1.14c.878 0 1.55-.17 2.008-.51.46-.345.69-.833.69-1.47 0-.638-.253-1.145-.76-1.526-.507-.38-1.33-.794-2.47-1.242-1.137-.446-2.037-.983-2.697-1.61-.66-.628-.99-1.507-.99-2.64 0-1.128.453-2.05 1.363-2.764.907-.713 2.08-1.07 3.517-1.07 1.433 0 2.61.212 3.53.63V11.6c-.882-.53-2.087-.798-3.617-.798" fill="#32AEE3"/><g transform="translate(0 -.552)"><mask id="b" fill="#fff"><use xlink:href="#a"/></mask><path d="M4.774 20.728L0 23.098l19.094 9.486L38.19 23.1l-4.775-2.372-14.32 7.113-14.32-7.112zm0-6.323L0 16.775l19.094 9.485 19.096-9.485-4.775-2.37-14.32 7.113-14.32-7.113zM19.094.968L0 10.453l19.094 9.484 19.096-9.484L19.094.968z" fill="#FEFEFE" mask="url(#b)"/></g></g></svg>